<svg width="50" height="50" viewBox="0 0 50 50" fill="none" xmlns="http://www.w3.org/2000/svg">
<path d="M0 14C0 6.26801 6.26801 0 14 0H36C43.732 0 50 6.26801 50 14V36C50 43.732 43.732 50 36 50H14C6.26801 50 0 43.732 0 36V14Z" fill="#FEE3FF"/>
<g clip-path="url(#clip0_62_4128)">
<path d="M34.9902 25H32.5102C32.0732 24.9991 31.6479 25.1413 31.2994 25.405C30.9508 25.6686 30.6982 26.0392 30.5802 26.46L28.2302 34.82C28.2151 34.8719 28.1835 34.9175 28.1402 34.95C28.097 34.9825 28.0443 35 27.9902 35C27.9361 35 27.8835 34.9825 27.8402 34.95C27.797 34.9175 27.7654 34.8719 27.7502 34.82L22.2302 15.18C22.2151 15.1281 22.1835 15.0825 22.1402 15.05C22.097 15.0175 22.0443 15 21.9902 15C21.9361 15 21.8835 15.0175 21.8402 15.05C21.797 15.0825 21.7654 15.1281 21.7502 15.18L19.4002 23.54C19.2827 23.9592 19.0316 24.3285 18.6851 24.592C18.3386 24.8555 17.9156 24.9988 17.4802 25H14.9902" stroke="#B241B7" stroke-width="2.33229" stroke-linecap="round" stroke-linejoin="round"/>
</g>
<defs>
<clipPath id="clip0_62_4128">
<rect width="24" height="24" fill="white" transform="translate(12.9902 13)"/>
</clipPath>
</defs>
</svg>
