<svg width="50" height="50" viewBox="0 0 50 50" fill="none" xmlns="http://www.w3.org/2000/svg">
<path d="M0 14C0 6.26801 6.26801 0 14 0H36C43.732 0 50 6.26801 50 14V36C50 43.732 43.732 50 36 50H14C6.26801 50 0 43.732 0 36V14Z" fill="#FEE3FF"/>
<path d="M24.9902 34.9992C30.5125 34.9992 34.9892 30.5225 34.9892 25.0002C34.9892 19.4779 30.5125 15.0012 24.9902 15.0012C19.4679 15.0012 14.9912 19.4779 14.9912 25.0002C14.9912 30.5225 19.4679 34.9992 24.9902 34.9992Z" stroke="#B241B7" stroke-width="1.9998" stroke-linecap="round" stroke-linejoin="round"/>
<path d="M24.9896 30.9994C28.303 30.9994 30.9891 28.3133 30.9891 25C30.9891 21.6866 28.303 19.0005 24.9896 19.0005C21.6763 19.0005 18.9902 21.6866 18.9902 25C18.9902 28.3133 21.6763 30.9994 24.9896 30.9994Z" stroke="#B241B7" stroke-width="1.9998" stroke-linecap="round" stroke-linejoin="round"/>
<path d="M24.9902 27.0002C26.0948 27.0002 26.9902 26.1048 26.9902 25.0002C26.9902 23.8956 26.0948 23.0002 24.9902 23.0002C23.8857 23.0002 22.9902 23.8956 22.9902 25.0002C22.9902 26.1048 23.8857 27.0002 24.9902 27.0002Z" stroke="#B241B7" stroke-width="1.9998" stroke-linecap="round" stroke-linejoin="round"/>
</svg>
